# xmcd
#
# Track frame offsets:
# 150
# 12422
# 24945
# 36045
# 49230
# 61582
# 70690
# 82235
# 88460
# 96410
# 101807
# 111680
# 122095
# 132897
# 141445
# 151567
# 161465
# 170385
# 186202
# 196535
# 207785
# 213997
# 221487
# 230477
# 239150
# 246650
# 250767
# 256765
# 262160
# 278802
# 289150
# 297605
# 308175
# 317677
# 330865
#
# Disc length: 4542 seconds
#
#
# Revision: 1
# Processed by: cddbd v1.5.1PL2 Copyright (c) Steve Scherf et al.
# Submitted via: FreeRIP 2.945 
#
DISCID=1111bc23
DTITLE=Sonoton Authentic Series - SAS 064 - Authentic Bulgaria
DYEAR=1997
DGENRE=Contentum
TTITLE0=Trakya - Opening ceremony
TTITLE1=Trakya - Rubato for gadulka
TTITLE2=Trakya - Three times
TTITLE3=Trakya - Shepherd's tune
TTITLE4=Trakya - Song of the nightingale
TTITLE5=Trakya - A fir is bending
TTITLE6=Trakya - Fight
TTITLE7=Trakya - Tunes from Trakya
TTITLE8=Pazardjik - Polegnala
TTITLE9=Pazardjik - Nikola pasture goats
TTITLE10=Pazardjik - Oh mother
TTITLE11=Pazardjik - Oh Balkan mountains
TTITLE12=Pazardjik - Tchernogorovo horo
TTITLE13=Pazardjik - Kopanista from Pazardjik
TTITLE14=Rhodopi - Rhodopi
TTITLE15=Rhodopi - I have knitted, Mechmedjo
TTITLE16=Rhodopi - Oh gane
TTITLE17=Pirin Macedonia - Dvojanka
TTITLE18=Pirin Macedonia - Zurne
TTITLE19=Pirin Macedonia - Gipsy melodies
TTITLE20=Pirin Macedonia - Dontcho
TTITLE21=Pirin Macedonia - Bachelors from Solun
TTITLE22=Pirin Macedonia - Holidays horo
TTITLE23=Pirin Macedonia - Shepherd's melody
TTITLE24=Pirin Macedonia - Macedonian horo
TTITLE25=Pirin Macedonia - Saz tunes
TTITLE26=Pirin Macedonia - Wedding horo
TTITLE27=Pirin Macedonia - Macedonian dances
TTITLE28=North Bulgaria - Along the Danube
TTITLE29=North Bulgaria - Elenino horo
TTITLE30=North Bulgaria - Kaval horo
TTITLE31=Dobrudja - Suite from dobrudja
TTITLE32=Dobrudja - Workparty
TTITLE33=Shopluk - Melodies from Graovo
TTITLE34=Shopluk - Sad forest
EXTD=Lyuben Dossev, Plovdiv, arranger\nSonoton SAS 064
EXTT0=
EXTT1=
EXTT2=
EXTT3=
EXTT4=
EXTT5=
EXTT6=
EXTT7=
EXTT8=
EXTT9=
EXTT10=
EXTT11=
EXTT12=
EXTT13=
EXTT14=
EXTT15=
EXTT16=
EXTT17=
EXTT18=
EXTT19=
EXTT20=
EXTT21=
EXTT22=
EXTT23=
EXTT24=
EXTT25=
EXTT26=
EXTT27=
EXTT28=
EXTT29=
EXTT30=
EXTT31=
EXTT32=
EXTT33=
EXTT34=
PLAYORDER=
